<mxfile host="65bd71144e">
    <diagram id="QZ3v5f-x0C5IyLKiLpOS" name="Page-1">
        <mxGraphModel dx="2672" dy="2133" grid="1" gridSize="10" guides="1" tooltips="1" connect="1" arrows="1" fold="1" page="1" pageScale="1" pageWidth="850" pageHeight="1100" math="0" shadow="0">
            <root>
                <mxCell id="0"/>
                <mxCell id="1" parent="0"/>
                <mxCell id="2" value="" style="swimlane;startSize=0;" vertex="1" parent="1">
                    <mxGeometry x="100" y="-210" width="650" height="860" as="geometry"/>
                </mxCell>
                <mxCell id="3" value="" style="ellipse;whiteSpace=wrap;html=1;" vertex="1" parent="2">
                    <mxGeometry x="135" y="100" width="170" height="90" as="geometry"/>
                </mxCell>
                <mxCell id="4" value="PlaceOrder" style="text;strokeColor=none;align=center;fillColor=none;html=1;verticalAlign=middle;whiteSpace=wrap;rounded=0;fontSize=17;" vertex="1" parent="2">
                    <mxGeometry x="160" y="127.5" width="120" height="35" as="geometry"/>
                </mxCell>
                <mxCell id="6" value="Online Shoping System" style="text;strokeColor=none;align=center;fillColor=none;html=1;verticalAlign=middle;whiteSpace=wrap;rounded=0;fontSize=17;" vertex="1" parent="2">
                    <mxGeometry x="210" y="20" width="230" height="30" as="geometry"/>
                </mxCell>
                <mxCell id="8" value="" style="ellipse;whiteSpace=wrap;html=1;" vertex="1" parent="2">
                    <mxGeometry x="135" y="250" width="170" height="90" as="geometry"/>
                </mxCell>
                <mxCell id="9" value="CancleOrder" style="text;strokeColor=none;align=center;fillColor=none;html=1;verticalAlign=middle;whiteSpace=wrap;rounded=0;fontSize=17;" vertex="1" parent="2">
                    <mxGeometry x="160" y="277.5" width="120" height="35" as="geometry"/>
                </mxCell>
                <mxCell id="10" value="" style="ellipse;whiteSpace=wrap;html=1;" vertex="1" parent="2">
                    <mxGeometry x="135" y="390" width="170" height="90" as="geometry"/>
                </mxCell>
                <mxCell id="11" value="CheckOrderState" style="text;strokeColor=none;align=center;fillColor=none;html=1;verticalAlign=middle;whiteSpace=wrap;rounded=0;fontSize=17;" vertex="1" parent="2">
                    <mxGeometry x="150" y="417.5" width="140" height="35" as="geometry"/>
                </mxCell>
                <mxCell id="18" value="" style="ellipse;whiteSpace=wrap;html=1;" vertex="1" parent="2">
                    <mxGeometry x="445" y="452.5" width="170" height="90" as="geometry"/>
                </mxCell>
                <mxCell id="19" value="CheckTrackingNo" style="text;strokeColor=none;align=center;fillColor=none;html=1;verticalAlign=middle;whiteSpace=wrap;rounded=0;fontSize=17;" vertex="1" parent="2">
                    <mxGeometry x="465" y="475" width="130" height="35" as="geometry"/>
                </mxCell>
                <mxCell id="20" value="" style="endArrow=block;dashed=1;endFill=0;endSize=12;html=1;fontSize=17;exitX=0.975;exitY=0.702;exitDx=0;exitDy=0;exitPerimeter=0;entryX=0.026;entryY=0.693;entryDx=0;entryDy=0;entryPerimeter=0;" edge="1" parent="2" source="10" target="18">
                    <mxGeometry width="160" relative="1" as="geometry">
                        <mxPoint x="461.1400000000001" y="298.02" as="sourcePoint"/>
                        <mxPoint x="315" y="445" as="targetPoint"/>
                    </mxGeometry>
                </mxCell>
                <mxCell id="24" value="&amp;lt;&amp;lt;include&amp;gt;&amp;gt;" style="text;strokeColor=none;align=center;fillColor=none;html=1;verticalAlign=middle;whiteSpace=wrap;rounded=0;fontSize=17;" vertex="1" parent="2">
                    <mxGeometry x="320" y="440" width="85" height="35" as="geometry"/>
                </mxCell>
                <mxCell id="25" value="" style="ellipse;whiteSpace=wrap;html=1;" vertex="1" parent="2">
                    <mxGeometry x="460" y="90" width="170" height="90" as="geometry"/>
                </mxCell>
                <mxCell id="26" value="Payment" style="text;strokeColor=none;align=center;fillColor=none;html=1;verticalAlign=middle;whiteSpace=wrap;rounded=0;fontSize=17;" vertex="1" parent="2">
                    <mxGeometry x="480" y="117.5" width="130" height="35" as="geometry"/>
                </mxCell>
                <mxCell id="27" value="" style="endArrow=block;dashed=1;endFill=0;endSize=12;html=1;fontSize=17;exitX=1;exitY=0.5;exitDx=0;exitDy=0;entryX=0.002;entryY=0.609;entryDx=0;entryDy=0;entryPerimeter=0;" edge="1" parent="2" source="3" target="25">
                    <mxGeometry width="160" relative="1" as="geometry">
                        <mxPoint x="309.22" y="178.76" as="sourcePoint"/>
                        <mxPoint x="462.72" y="269.30999999999995" as="targetPoint"/>
                    </mxGeometry>
                </mxCell>
                <mxCell id="29" value="&amp;lt;&amp;lt;include&amp;gt;&amp;gt;" style="text;strokeColor=none;align=center;fillColor=none;html=1;verticalAlign=middle;whiteSpace=wrap;rounded=0;fontSize=17;" vertex="1" parent="2">
                    <mxGeometry x="335" y="110" width="85" height="35" as="geometry"/>
                </mxCell>
                <mxCell id="31" value="" style="ellipse;whiteSpace=wrap;html=1;" vertex="1" parent="2">
                    <mxGeometry x="140" y="550" width="170" height="90" as="geometry"/>
                </mxCell>
                <mxCell id="32" value="deliveryDate" style="text;strokeColor=none;align=center;fillColor=none;html=1;verticalAlign=middle;whiteSpace=wrap;rounded=0;fontSize=17;" vertex="1" parent="2">
                    <mxGeometry x="155" y="577.5" width="140" height="35" as="geometry"/>
                </mxCell>
                <mxCell id="34" value="" style="ellipse;whiteSpace=wrap;html=1;" vertex="1" parent="2">
                    <mxGeometry x="455" y="260" width="170" height="90" as="geometry"/>
                </mxCell>
                <mxCell id="35" value="ConfirmationMail" style="text;strokeColor=none;align=center;fillColor=none;html=1;verticalAlign=middle;whiteSpace=wrap;rounded=0;fontSize=17;" vertex="1" parent="2">
                    <mxGeometry x="470" y="287.5" width="140" height="35" as="geometry"/>
                </mxCell>
                <mxCell id="36" value="" style="endArrow=block;dashed=1;endFill=0;endSize=12;html=1;fontSize=17;exitX=0.976;exitY=0.311;exitDx=0;exitDy=0;exitPerimeter=0;entryX=0.075;entryY=0.8;entryDx=0;entryDy=0;entryPerimeter=0;" edge="1" parent="2" source="31" target="18">
                    <mxGeometry width="160" relative="1" as="geometry">
                        <mxPoint x="310.75" y="463.18000000000006" as="sourcePoint"/>
                        <mxPoint x="424.4200000000001" y="502.3699999999999" as="targetPoint"/>
                    </mxGeometry>
                </mxCell>
                <mxCell id="37" value="&amp;lt;&amp;lt;include&amp;gt;&amp;gt;" style="text;strokeColor=none;align=center;fillColor=none;html=1;verticalAlign=middle;whiteSpace=wrap;rounded=0;fontSize=17;" vertex="1" parent="2">
                    <mxGeometry x="310" y="515" width="85" height="35" as="geometry"/>
                </mxCell>
                <mxCell id="39" value="" style="endArrow=block;dashed=1;endFill=0;endSize=12;html=1;fontSize=17;exitX=0;exitY=0.5;exitDx=0;exitDy=0;" edge="1" parent="2" source="34" target="8">
                    <mxGeometry width="160" relative="1" as="geometry">
                        <mxPoint x="315" y="155" as="sourcePoint"/>
                        <mxPoint x="470.3399999999999" y="154.80999999999995" as="targetPoint"/>
                    </mxGeometry>
                </mxCell>
                <mxCell id="40" value="" style="endArrow=block;dashed=1;endFill=0;endSize=12;html=1;fontSize=17;exitX=0;exitY=0.333;exitDx=0;exitDy=0;exitPerimeter=0;entryX=0.968;entryY=0.68;entryDx=0;entryDy=0;entryPerimeter=0;" edge="1" parent="2" source="34" target="3">
                    <mxGeometry width="160" relative="1" as="geometry">
                        <mxPoint x="450" y="305" as="sourcePoint"/>
                        <mxPoint x="315" y="305" as="targetPoint"/>
                    </mxGeometry>
                </mxCell>
                <mxCell id="41" value="&amp;lt;&amp;lt;extend&amp;gt;&amp;gt;" style="text;strokeColor=none;align=center;fillColor=none;html=1;verticalAlign=middle;whiteSpace=wrap;rounded=0;fontSize=17;" vertex="1" parent="2">
                    <mxGeometry x="370" y="210" width="85" height="35" as="geometry"/>
                </mxCell>
                <mxCell id="42" value="&amp;lt;&amp;lt;extend&amp;gt;&amp;gt;" style="text;strokeColor=none;align=center;fillColor=none;html=1;verticalAlign=middle;whiteSpace=wrap;rounded=0;fontSize=17;" vertex="1" parent="2">
                    <mxGeometry x="335" y="260" width="85" height="35" as="geometry"/>
                </mxCell>
                <mxCell id="43" value="" style="ellipse;whiteSpace=wrap;html=1;" vertex="1" parent="2">
                    <mxGeometry x="440" y="620" width="170" height="90" as="geometry"/>
                </mxCell>
                <mxCell id="45" value="ShipProduct" style="text;strokeColor=none;align=center;fillColor=none;html=1;verticalAlign=middle;whiteSpace=wrap;rounded=0;fontSize=17;" vertex="1" parent="2">
                    <mxGeometry x="455" y="647.5" width="140" height="35" as="geometry"/>
                </mxCell>
                <mxCell id="46" value="Actor" style="shape=umlActor;verticalLabelPosition=bottom;verticalAlign=top;html=1;outlineConnect=0;fontSize=17;" vertex="1" parent="1">
                    <mxGeometry x="-90" y="80" width="70" height="110" as="geometry"/>
                </mxCell>
                <mxCell id="47" value="" style="endArrow=none;html=1;fontSize=17;entryX=0;entryY=0.5;entryDx=0;entryDy=0;" edge="1" parent="1" source="46" target="10">
                    <mxGeometry width="50" height="50" relative="1" as="geometry">
                        <mxPoint x="220" y="340" as="sourcePoint"/>
                        <mxPoint x="270" y="290" as="targetPoint"/>
                    </mxGeometry>
                </mxCell>
                <mxCell id="48" value="" style="endArrow=none;html=1;fontSize=17;entryX=0;entryY=0.5;entryDx=0;entryDy=0;" edge="1" parent="1" source="46" target="31">
                    <mxGeometry width="50" height="50" relative="1" as="geometry">
                        <mxPoint x="-10" y="126.38888888888891" as="sourcePoint"/>
                        <mxPoint x="245" y="235" as="targetPoint"/>
                    </mxGeometry>
                </mxCell>
                <mxCell id="49" value="" style="endArrow=none;html=1;fontSize=17;entryX=0;entryY=0.5;entryDx=0;entryDy=0;" edge="1" parent="1" target="8">
                    <mxGeometry width="50" height="50" relative="1" as="geometry">
                        <mxPoint x="-10" y="110" as="sourcePoint"/>
                        <mxPoint x="245" y="235" as="targetPoint"/>
                    </mxGeometry>
                </mxCell>
                <mxCell id="50" value="" style="endArrow=none;html=1;fontSize=17;entryX=-0.013;entryY=0.609;entryDx=0;entryDy=0;entryPerimeter=0;" edge="1" parent="1" target="3">
                    <mxGeometry width="50" height="50" relative="1" as="geometry">
                        <mxPoint x="-10" y="100" as="sourcePoint"/>
                        <mxPoint x="245" y="95" as="targetPoint"/>
                    </mxGeometry>
                </mxCell>
                <mxCell id="53" value="Coustomer" style="text;strokeColor=none;align=center;fillColor=none;html=1;verticalAlign=middle;whiteSpace=wrap;rounded=0;fontSize=17;" vertex="1" parent="1">
                    <mxGeometry x="-110" y="210" width="110" height="30" as="geometry"/>
                </mxCell>
                <mxCell id="54" value="Actor" style="shape=umlActor;verticalLabelPosition=bottom;verticalAlign=top;html=1;outlineConnect=0;fontSize=17;" vertex="1" parent="1">
                    <mxGeometry x="900" y="380" width="80" height="110" as="geometry"/>
                </mxCell>
                <mxCell id="55" value="Actor" style="shape=umlActor;verticalLabelPosition=bottom;verticalAlign=top;html=1;outlineConnect=0;fontSize=17;" vertex="1" parent="1">
                    <mxGeometry x="900" y="600" width="80" height="110" as="geometry"/>
                </mxCell>
                <mxCell id="56" value="ShipingCompany" style="text;strokeColor=none;align=center;fillColor=none;html=1;verticalAlign=middle;whiteSpace=wrap;rounded=0;fontSize=17;" vertex="1" parent="1">
                    <mxGeometry x="870" y="515" width="140" height="35" as="geometry"/>
                </mxCell>
                <mxCell id="57" value="Dispatcher" style="text;strokeColor=none;align=center;fillColor=none;html=1;verticalAlign=middle;whiteSpace=wrap;rounded=0;fontSize=17;" vertex="1" parent="1">
                    <mxGeometry x="870" y="730" width="140" height="35" as="geometry"/>
                </mxCell>
                <mxCell id="58" value="" style="endArrow=none;html=1;fontSize=17;exitX=1;exitY=0.5;exitDx=0;exitDy=0;" edge="1" parent="1" source="43" target="54">
                    <mxGeometry width="50" height="50" relative="1" as="geometry">
                        <mxPoint x="910" y="590" as="sourcePoint"/>
                        <mxPoint x="960" y="540" as="targetPoint"/>
                    </mxGeometry>
                </mxCell>
                <mxCell id="59" value="" style="endArrow=none;html=1;fontSize=17;exitX=1;exitY=1;exitDx=0;exitDy=0;" edge="1" parent="1" source="43">
                    <mxGeometry width="50" height="50" relative="1" as="geometry">
                        <mxPoint x="910" y="590" as="sourcePoint"/>
                        <mxPoint x="890" y="680" as="targetPoint"/>
                    </mxGeometry>
                </mxCell>
            </root>
        </mxGraphModel>
    </diagram>
</mxfile>